# xmcd
#
# Track frame offsets:
#	150
#	17880
#	35743
#	62668
#	108152
#	124462
#	151353
#	171342
#
# Disc length: 2649 seconds
#
# Revision: 1
# Processed by: cddbd v1.5.2PL0 Copyright (c) Steve Scherf et al.
# Submitted via: audiograbber 1.83.01
#
DISCID=6b0a5708
DTITLE=Kiss - Rockin' Roots Of Kiss -2-
DYEAR=2015
DGENRE=Rock
TTITLE0=I Love It Loud
TTITLE1=Tears Are Falling
TTITLE2=Drum Solo
TTITLE3=War Machine
TTITLE4=Love Gun
TTITLE5=Rock And Roll All Night
TTITLE6=Heaven's On Fire
TTITLE7=Lick It Up
EXTD=
EXTT0=
EXTT1=
EXTT2=
EXTT3=
EXTT4=
EXTT5=
EXTT6=
EXTT7=
PLAYORDER=
